<svg width="65" height="77" xmlns="http://www.w3.org/2000/svg"><g fill="#212121" fill-rule="nonzero"><path d="M64.032 33.888c0 .384-.128.736-.384 1.056-.256.32-.608.48-1.056.48h-37.44c-1.024 0-1.536-.512-1.536-1.536 0-.448.16-.8.48-1.056.32-.256.672-.384 1.056-.384h37.44c.384 0 .72.144 1.008.432.288.288.432.624.432 1.008zm.384 32.064c0 .448-.16.832-.48 1.152A33.623 33.623 0 0 1 52.032 74.4c-4.48 1.6-9.024 2.4-13.632 2.4-5.312 0-10.304-1.008-14.976-3.024-4.672-2.016-8.736-4.752-12.192-8.208-3.456-3.456-6.192-7.52-8.208-12.192C1.008 48.704 0 43.712 0 38.4c0-5.312 1.008-10.304 3.024-14.976 2.016-4.672 4.752-8.736 8.208-12.192 3.456-3.456 7.52-6.192 12.192-8.208C28.096 1.008 33.088 0 38.4 0c4.608 0 9.136.8 13.584 2.4 4.448 1.6 8.4 4.032 11.856 7.296.384.384.576.736.576 1.056 0 .448-.16.848-.48 1.2-.32.352-.704.528-1.152.528-.32 0-.64-.16-.96-.48-3.456-2.88-7.072-5.104-10.848-6.672C47.2 3.76 43.008 2.976 38.4 2.976c-4.864 0-9.44.928-13.728 2.784-4.288 1.856-8.048 4.4-11.28 7.632-3.232 3.232-5.776 6.992-7.632 11.28C3.904 28.96 2.976 33.536 2.976 38.4c0 4.864.928 9.44 2.784 13.728 1.856 4.288 4.4 8.048 7.632 11.28 3.232 3.232 6.992 5.776 11.28 7.632 4.288 1.856 8.864 2.784 13.728 2.784 4.224 0 8.304-.752 12.24-2.256a38.497 38.497 0 0 0 10.8-6.288l.096-20.352H24.96c-.448 0-.816-.16-1.104-.48a1.663 1.663 0 0 1-.432-1.152c0-.384.144-.736.432-1.056.288-.32.656-.48 1.104-.48h38.016c1.024 0 1.536.544 1.536 1.632l-.096 22.56z"/><path d="M58.544 60.212c0 .304-.152.608-.456.912a26.618 26.618 0 0 1-9.424 5.776c-3.547 1.267-7.144 1.9-10.792 1.9-4.205 0-8.157-.798-11.856-2.394s-6.916-3.762-9.652-6.498c-2.736-2.736-4.902-5.953-6.498-9.652-1.596-3.699-2.394-7.65-2.394-11.856 0-4.205.798-8.157 2.394-11.856s3.762-6.916 6.498-9.652c2.736-2.736 5.953-4.902 9.652-6.498C29.715 8.798 33.666 8 37.872 8c1.773 0 3.585.165 5.434.494 1.85.33 3.648.823 5.396 1.482a32.546 32.546 0 0 1 5.016 2.394 23.315 23.315 0 0 1 4.37 3.306c.304.304.456.608.456.912 0 .304-.14.583-.418.836-.279.253-.57.38-.874.38-.304 0-.557-.101-.76-.304a58.398 58.398 0 0 0-4.332-3.002 29.336 29.336 0 0 0-4.332-2.242 25.032 25.032 0 0 0-4.674-1.406c-1.647-.33-3.407-.494-5.282-.494-3.85 0-7.473.735-10.868 2.204-3.395 1.47-6.371 3.483-8.93 6.042-2.559 2.559-4.573 5.535-6.042 8.93-1.47 3.395-2.204 7.017-2.204 10.868 0 3.85.735 7.473 2.204 10.868 1.47 3.395 3.483 6.371 6.042 8.93 2.559 2.559 5.535 4.573 8.93 6.042 3.395 1.47 7.017 2.204 10.868 2.204 3.648 0 6.967-.62 9.956-1.862 2.99-1.241 5.877-3.002 8.664-5.282.253-.253.532-.38.836-.38.304 0 .583.14.836.418.253.279.38.57.38.874z" stroke="#212121" stroke-width=".75"/></g></svg>